<?xml version="1.0" encoding="UTF-8"?>
<svg id="Layer_1" data-name="Layer 1" xmlns="http://www.w3.org/2000/svg" viewBox="0 0 500 120">
  <defs>
    <style>
      .cls-1 {
        fill: #f7f7f7;
      }

      .cls-2 {
        fill: #ff815a;
        opacity: .2;
      }
    </style>
  </defs>
  <path class="cls-1" d="M100.89,114.26h-36.04l-27.62-42.89v42.89H8.27V2.74h45.05c6.2,0,11.62.91,16.25,2.74,4.63,1.83,8.44,4.31,11.45,7.47,3,3.16,5.27,6.8,6.79,10.94s2.29,8.58,2.29,13.31c0,8.48-2.05,15.36-6.13,20.63-4.09,5.27-10.12,8.85-18.09,10.72l35.01,45.7h0ZM37.22,52.58h5.47c5.71,0,10.09-1.18,13.14-3.55,3.05-2.37,4.58-5.77,4.58-10.21s-1.53-7.84-4.58-10.2c-3.05-2.37-7.44-3.55-13.14-3.55h-5.47s0,27.51,0,27.51Z"/>
  <path class="cls-1" d="M245.94,114.26V2.74h28.95l53.47,68.18V2.74h28.8v111.52h-28.8l-53.47-68.18v68.18h-28.95Z"/>
  <path class="cls-1" d="M380.5,114.26V2.74h28.95l53.47,68.18V2.74h28.8v111.52h-28.8l-53.47-68.18v68.18h-28.95Z"/>
  <g id="Ellipse_1_copy" data-name="Ellipse 1 copy">
    <path class="cls-1" d="M168.55-.61c-33.48,0-60.61,27.14-60.61,60.61s27.14,60.61,60.61,60.61,60.61-27.14,60.61-60.61S202.03-.61,168.55-.61Z"/>
  </g>
  <path class="cls-2" d="M155.13,22.72c5.67-1.28,9.43,1.24,13.12,5.46,9.16,10.45,18.8,20.48,28.22,30.69,1.96,2.12,1.9,3.91-.23,6.23-8.09,8.82-16.2,17.61-24.3,26.41-2.38,2.58-4.8,5.13-7.13,7.75-1.18,1.33-2.58,1.97-4.33,1.96-3.58-.02-7.16-.02-10.74,0-1.84.01-3.52-.4-4.28-2.23-.79-1.91-.55-3.84.9-5.42,3.87-4.23,7.76-8.43,11.65-12.64,5.4-5.84,10.77-11.7,16.22-17.5.93-.99,1-1.52.04-2.57-9.18-9.96-18.28-19.98-27.42-29.97-.95-1.04-1.68-2.1-1.75-3.57-.15-3.11,1.11-4.54,4.24-4.6,1.93-.04,3.86,0,5.8,0h0Z"/>
</svg>